<svg xmlns="http://www.w3.org/2000/svg" viewBox="0 0 16 16"><defs><style>.cls-1{fill:#fff;}.cls-2{fill:#999;}.cls-3{fill:#333;}</style></defs><title>Zeichenfläche 1</title><g id="Ebene_1" data-name="Ebene 1"><path class="cls-1" d="M1,1H15V15H1Z"/><path class="cls-2" d="M1,1V15H15V1ZM2,2H14V14H2Z"/></g><g id="Ebene_2" data-name="Ebene 2"><path class="cls-3" d="M7.61,9.61a.14.14,0,1,0,.2.2L9.53,8.1l0,0a.14.14,0,0,0,0-.11l0,0L7.82,6.18a.14.14,0,0,0-.2.2L9.08,7.86H4.71a.14.14,0,0,0,0,.29H9.08Z"/><path class="cls-3" d="M11.29,4H6a.14.14,0,0,0-.14.14v3a.14.14,0,0,0,.29,0V4.29h5v7.43h-5V8.86a.14.14,0,0,0-.29,0v3A.14.14,0,0,0,6,12h5.29a.14.14,0,0,0,.14-.14V4.14A.14.14,0,0,0,11.29,4Z"/></g></svg>