<svg xmlns="http://www.w3.org/2000/svg" viewBox="0 0 16 16"><defs><style>.cls-1{fill:#fff;}.cls-2{fill:#999;}.cls-3{fill:#333;}</style></defs><title>Zeichenfläche 1</title><g id="Ebene_1" data-name="Ebene 1"><path class="cls-1" d="M1,1H15V15H1Z"/><path class="cls-2" d="M1,1V15H15V1ZM2,2H14V14H2Z"/></g><g id="Ebene_2" data-name="Ebene 2"><path class="cls-3" d="M11.93,4.17a.15.15,0,0,0-.15,0L9.33,5.46,6.88,4.17H6.77L4.1,5a.15.15,0,0,0-.1.14v6.37a.15.15,0,0,0,.15.15h0l2.61-.87,2.47,1H9.4l2.52-1.33a.15.15,0,0,0,.08-.13V4.3A.15.15,0,0,0,11.93,4.17ZM4.3,5.29,6.67,4.5v4l-.19,0a.15.15,0,0,0,0,.29h0l.11,0v1.75l-2.37.79ZM7,8.76h.14a.15.15,0,0,0,0-.3H7V4.54L9.19,5.72V8.86l-.33,0a.15.15,0,1,0-.06.29,2.52,2.52,0,0,0,.38,0v2.33L7,10.57Zm4.74,1.52L9.48,11.46V9.14a.15.15,0,0,0,0-.27V5.72L11.7,4.54Z"/><path class="cls-3" d="M5.63,5.33A.74.74,0,0,0,5.48,6.8v.31a.15.15,0,0,0,.3,0V6.8a.74.74,0,0,0-.15-1.47Zm0,1.19a.44.44,0,1,1,.44-.44A.44.44,0,0,1,5.63,6.52Z"/><path class="cls-3" d="M10.68,8.1h.05A.15.15,0,0,0,10.87,8a3.32,3.32,0,0,0,.17-.6.15.15,0,1,0-.29-.05,3,3,0,0,1-.15.54A.15.15,0,0,0,10.68,8.1Z"/><path class="cls-3" d="M5.9,8.79a2.05,2.05,0,0,0-.48.42.15.15,0,0,0,.23.19A1.75,1.75,0,0,1,6.05,9a.15.15,0,0,0-.16-.25Z"/><path class="cls-3" d="M5.28,9.67a.15.15,0,0,0-.2.07,2.36,2.36,0,0,0-.19.61.15.15,0,0,0,.13.17H5a.15.15,0,0,0,.15-.13,2.09,2.09,0,0,1,.17-.52A.15.15,0,0,0,5.28,9.67Z"/><path class="cls-3" d="M10,9l.07,0a1.54,1.54,0,0,0,.5-.41.15.15,0,1,0-.23-.19,1.25,1.25,0,0,1-.41.33A.15.15,0,0,0,10,9Z"/><path class="cls-3" d="M8.32,8.66l-.11,0h0l-.47-.1a.15.15,0,1,0,0,.29l.43.09.11,0h.06a.15.15,0,0,0,.06-.29Z"/><path class="cls-3" d="M11,7h0a.15.15,0,0,0,.15-.14c0-.14,0-.29,0-.45s0-.1,0-.16A.15.15,0,0,0,11,6.06a.15.15,0,0,0-.15.15c0,.05,0,.1,0,.15s0,.29,0,.43A.15.15,0,0,0,11,7Z"/><path class="cls-3" d="M5.23,8.25a.15.15,0,0,0,.21,0l.19-.19.19.19A.15.15,0,1,0,6,8l-.19-.19L6,7.66a.15.15,0,1,0-.21-.21l-.19.19-.19-.19a.15.15,0,1,0-.21.21l.19.19L5.23,8A.15.15,0,0,0,5.23,8.25Z"/></g></svg>