<svg id="Ebene_1" data-name="Ebene 1" xmlns="http://www.w3.org/2000/svg" viewBox="0 0 16 16"><defs><style>.cls-1{fill:#fff;}.cls-2{fill:#999;}.cls-3{fill:#333;}</style></defs><title>Zeichenfläche 1</title><path class="cls-1" d="M1,1H15V15H1Z"/><path class="cls-2" d="M1,1V15H15V1ZM2,2H14V14H2Z"/><path class="cls-3" d="M9.83,7.43V9H12V7.43h-.83V6.7h-3V6.28h2.6v-2H5.25v2h2.6V6.7h-3v.73H4V9H6.19V7.43h-1V7H7.85v.42H6.92V9h.94v.42h-3v.73H4V11.7H6.19V10.14h-1V9.72H7.85v.42H6.92V11.7H9.1V10.14H8.17V9.72h2.71v.42h-1V11.7H12V10.14h-.83V9.41h-3V9H9.1V7.43H8.17V7h2.71v.42h-1Zm-4,.31v.94H4.31V7.74Zm0,2.71v.94H4.31v-.94Zm5.83,0v.94H10.15v-.94Zm-2.92,0v.94H7.23v-.94Zm0-2.71v.94H7.23V7.74ZM5.56,6V4.62h4.89V6Zm6.14,1.77v.94H10.15V7.74Z"/><rect class="cls-3" x="6.45" y="5.59" width="1.98" height="0.31"/><rect class="cls-3" x="8.74" y="5.59" width="1.67" height="0.31"/><rect class="cls-3" x="5.09" y="8.5" width="0.83" height="0.31"/><rect class="cls-3" x="8.01" y="8.5" width="0.83" height="0.31"/><rect class="cls-3" x="10.93" y="8.5" width="0.83" height="0.31"/><rect class="cls-3" x="10.93" y="11.21" width="0.83" height="0.31"/><rect class="cls-3" x="8.01" y="11.21" width="0.83" height="0.31"/><rect class="cls-3" x="5.09" y="11.21" width="0.83" height="0.31"/></svg>