<svg xmlns="http://www.w3.org/2000/svg" viewBox="0 0 16 16"><defs><style>.cls-1{fill:#fff;}.cls-2{fill:#999;}.cls-3{fill:#333;}</style></defs><title>Zeichenfläche 1</title><g id="Ebene_1" data-name="Ebene 1"><path class="cls-1" d="M1,1H15V15H1Z"/><path class="cls-2" d="M1,1V15H15V1ZM2,2H14V14H2Z"/></g><g id="Ebene_2" data-name="Ebene 2"><path class="cls-3" d="M11.13,4a.87.87,0,0,0-.77,1.29L8.93,6.72a1.16,1.16,0,0,0-1.42,0L6.39,5.6a.57.57,0,0,0,.08-.29.58.58,0,1,0-.58.58.57.57,0,0,0,.29-.08L7.3,6.92a1.16,1.16,0,0,0,0,1.42L5.46,10.19a.86.86,0,1,0,.18.23L7.51,8.55a1.16,1.16,0,0,0,.57.24v1.48a.87.87,0,1,0,.29,0V8.79a1.16,1.16,0,0,0,.57-.24L10,9.67A.57.57,0,0,0,10,10a.58.58,0,1,0,.58-.58.57.57,0,0,0-.29.08L9.14,8.35a1.16,1.16,0,0,0,0-1.42l1.41-1.41A.87.87,0,1,0,11.13,4ZM5.6,5.31a.29.29,0,1,1,.29.29A.29.29,0,0,1,5.6,5.31Zm-.73,6.11a.58.58,0,1,1,.58-.58A.58.58,0,0,1,4.87,11.42Zm3.93-.29a.58.58,0,1,1-.58-.58A.58.58,0,0,1,8.8,11.13ZM8.22,8.51a.87.87,0,1,1,.87-.87A.87.87,0,0,1,8.22,8.51ZM10.84,10a.29.29,0,1,1-.29-.29A.29.29,0,0,1,10.84,10Zm.29-4.51a.58.58,0,1,1,.58-.58A.58.58,0,0,1,11.13,5.45Z"/></g></svg>