<svg xmlns="http://www.w3.org/2000/svg" viewBox="0 0 16 16"><defs><style>.cls-1{fill:#fff;}.cls-2{fill:#999;}.cls-3{fill:#333;}</style></defs><title>Zeichenfläche 1</title><g id="Ebene_1" data-name="Ebene 1"><path class="cls-1" d="M1,1H15V15H1Z"/><path class="cls-2" d="M1,1V15H15V1ZM2,2H14V14H2Z"/></g><g id="Ebene_2" data-name="Ebene 2"><path class="cls-3" d="M12,8a.17.17,0,0,0-.26-.14.81.81,0,0,1-1.23-.68h0a.17.17,0,0,0-.21-.17l-.16,0a.81.81,0,0,1-.77-1.07.17.17,0,0,0-.11-.22A.81.81,0,0,1,8.9,4.37a.17.17,0,0,0-.1-.29A4,4,0,0,0,8,4a4,4,0,1,0,4,4S12,8,12,8Zm-4,3.7A3.65,3.65,0,1,1,8,4.35a3.7,3.7,0,0,1,.48,0A1.16,1.16,0,0,0,9,5.94a1.16,1.16,0,0,0,1.14,1.37h0a1.16,1.16,0,0,0,1.48.92A3.66,3.66,0,0,1,8,11.65Z"/><path class="cls-3" d="M6.34,6a.56.56,0,1,0,.56.56A.56.56,0,0,0,6.34,6Zm0,.76a.21.21,0,1,1,.21-.21A.21.21,0,0,1,6.34,6.73Z"/><path class="cls-3" d="M8.94,7.5a.56.56,0,1,0,.56.56A.56.56,0,0,0,8.94,7.5Zm0,.76a.21.21,0,1,1,.21-.21A.21.21,0,0,1,8.94,8.26Z"/><path class="cls-3" d="M8.81,9.54a.59.59,0,1,0,.59.59A.59.59,0,0,0,8.81,9.54Zm0,.83a.24.24,0,1,1,.24-.24A.24.24,0,0,1,8.81,10.37Z"/><path class="cls-3" d="M6,8.88a.49.49,0,1,0,.49.49A.49.49,0,0,0,6,8.88Zm0,.63a.14.14,0,1,1,.14-.14A.14.14,0,0,1,6,9.51Z"/></g></svg>