<svg id="Capa_1" data-name="Capa 1" xmlns="http://www.w3.org/2000/svg" viewBox="0 0 64 64"><defs><style>.cls-1{fill:#d64c00;}</style></defs><title>Zeichenfläche 1</title><path class="cls-1" d="M33.76,0A21.75,21.75,0,0,0,12,21.72c0,4.81,2.83,12.13,8.92,23,4.15,7.44,8.28,13.72,8.46,14l3,4.53a1.63,1.63,0,0,0,2.72,0l3-4.53c.17-.26,4.27-6.49,8.46-14,6.08-10.9,8.92-18.22,8.92-23A21.75,21.75,0,0,0,33.76,0Zm10,43.17c-4.13,7.39-8.16,13.52-8.33,13.78l-1.63,2.47-1.63-2.47C32,56.69,27.9,50.5,23.8,43.17c-5.64-10.11-8.5-17.33-8.5-21.45a18.47,18.47,0,0,1,36.93,0C52.23,25.84,49.37,33.06,43.72,43.17Z"/><path class="cls-1" d="M33.76,9.54a12,12,0,1,0,12,12A12.06,12.06,0,0,0,33.76,9.54Zm0,20.83a8.79,8.79,0,1,1,8.79-8.79A8.8,8.8,0,0,1,33.76,30.37Z"/></svg>